# Blender v2.79 (sub 0) OBJ File: ''
# www.blender.org
mtllib bloques3.mtl

v -19.638100 -0.000000 2.842300
v -26.102200 0.000001 -16.084299
v -7.175600 0.000001 -22.548401
v -0.711500 0.000000 -3.621800
v -19.638100 20.000000 2.842301
v -0.711500 20.000000 -3.621799
v -7.175600 20.000002 -22.548401
v -26.102200 20.000000 -16.084299

vn -0.0000 1.0000 0.0000
vn -0.9463 0.0000 0.3232
vn -0.0000 -1.0000 -0.0000
vn 0.9463 -0.0000 -0.3232
vn 0.3232 -0.0000 0.9463
vn -0.3232 0.0000 -0.9463

vt 0.999500 0.000500
vt 0.000500 0.999500
vt 0.000500 0.000500
vt 0.999500 0.999500
vt 0.999500 0.000500
vt 0.000500 0.000500
vt 0.999500 0.999500
vt 0.999500 0.999500
vt 0.000500 0.000500
vt 0.000500 0.999500
vt 0.999500 0.000500
vt 0.000500 0.999500
vt 0.999500 0.000500
vt 0.000500 0.999500
vt 0.000500 0.000500
vt 0.999500 0.999500
vt 0.999500 0.000500
vt 0.000500 0.999500
vt 0.000500 0.000500
vt 0.999500 0.999500
o Box001
usemtl Material__39
s 1
f 6/1/1 8/2/1 5/3/1
f 6/1/1 7/4/1 8/2/1
usemtl Material__38
f 1/5/2 8/2/2 2/6/2
f 1/5/2 5/7/2 8/2/2
usemtl Material__37
f 2/8/3 4/9/3 1/5/3
f 2/8/3 3/10/3 4/9/3
usemtl Material__36
f 3/11/4 6/12/4 4/9/4
f 3/11/4 7/4/4 6/12/4
usemtl Material__40
f 4/13/5 5/14/5 1/15/5
f 4/13/5 6/16/5 5/14/5
usemtl Material__41
f 2/17/6 7/18/6 3/19/6
f 2/17/6 8/20/6 7/18/6

v 0.024000 0.000000 -4.633400
v 7.948000 0.000001 -22.996700
v 26.311199 0.000001 -15.072700
v 18.387199 -0.000000 3.290600
v 0.024000 20.000000 -4.633399
v 18.387199 20.000000 3.290601
v 26.311199 20.000000 -15.072699
v 7.948000 20.000002 -22.996700

vn 0.0000 1.0000 -0.0000
vn -0.9182 0.0000 -0.3962
vn 0.0000 -1.0000 -0.0000
vn 0.9182 0.0000 0.3962
vn -0.3962 -0.0000 0.9182
vn 0.3962 0.0000 -0.9182

vt 0.000500 0.000500
vt 0.999500 0.999500
vt 0.000500 0.999500
vt 0.999500 0.000500
vt 0.999500 0.000500
vt 0.000500 0.000500
vt 0.999500 0.999500
vt 0.000500 0.999500
vt 0.000500 0.000500
vt 0.999500 0.999500
vt 0.000500 0.999500
vt 0.999500 0.000500
vt 0.999500 0.000500
vt 0.000500 0.999500
vt 0.000500 0.000500
vt 0.999500 0.999500
vt 0.999500 0.000500
vt 0.000500 0.999500
vt 0.000500 0.000500
vt 0.999500 0.999500
o Box002
usemtl Material__39
s 1
f 13/21/7 15/22/7 16/23/7
f 13/21/7 14/24/7 15/22/7
usemtl Material__38
f 9/25/8 16/23/8 10/26/8
f 9/25/8 13/27/8 16/23/8
usemtl Material__37
f 9/25/9 11/28/9 12/29/9
f 9/25/9 10/30/9 11/28/9
usemtl Material__36
f 12/29/10 15/22/10 14/31/10
f 12/29/10 11/32/10 15/22/10
usemtl Material__40
f 12/33/11 13/34/11 9/35/11
f 12/33/11 14/36/11 13/34/11
usemtl Material__41
f 10/37/12 15/38/12 11/39/12
f 10/37/12 16/40/12 15/38/12
# ###
v 5.496900 -0.000000 1.762200
v -12.917700 -0.000000 9.566100
v -12.917700 20.000000 9.566101
v 5.496900 20.000000 1.762201
v 13.300800 -0.000001 20.176800
v 13.300800 20.000000 20.176800
v -5.113800 19.999998 27.980700
v -5.113800 -0.000001 27.980700

vn 0.3902 0.0000 0.9207
vn 0.0000 -1.0000 -0.0000
vn -0.3902 0.0000 -0.9207
vn -0.0000 1.0000 0.0000
vn 0.9207 0.0000 -0.3902
vn -0.9207 0.0000 0.3902

vt 0.000500 0.000500
vt 0.999500 0.999500
vt 0.000500 0.999500
vt 0.999500 0.000500
vt 0.999500 0.000500
vt 0.000500 0.000500
vt 0.999500 0.999500
vt 0.999500 0.999500
vt 0.000500 0.000500
vt 0.000500 0.999500
vt 0.999500 0.000500
vt 0.000500 0.999500
vt 0.999500 0.000500
vt 0.000500 0.999500
vt 0.000500 0.000500
vt 0.999500 0.999500
vt 0.999500 0.000500
vt 0.000500 0.999500
vt 0.000500 0.000500
vt 0.999500 0.999500

o Box003
usemtl Material__39
s 1
f 21/41/13 23/42/13 24/43/13
f 21/41/13 22/44/13 23/42/13
usemtl Material__38
f 17/45/14 24/43/14 18/46/14
f 17/45/14 21/47/14 24/43/14
usemtl Material__37
f 18/48/15 20/49/15 17/45/15
f 18/48/15 19/50/15 20/49/15
usemtl Material__36
f 19/51/16 22/52/16 20/49/16
f 19/51/16 23/42/16 22/52/16
usemtl Material__40
f 20/53/17 21/54/17 17/55/17
f 20/53/17 22/56/17 21/54/17
usemtl Material__41
f 18/57/18 23/58/18 19/59/18
f 18/57/18 24/60/18 23/58/18

v -150.000000 0.000005 -120.000000
v -150.000000 -0.000005 120.000000
v 150.000000 -0.000005 120.000000
v 150.000000 0.000005 -120.000000

vn 0.0000 1.0000 0.0000

vt 0.000000 0.000000
vt 1.000000 1.000000
vt 0.000000 1.000000
vt 1.000000 0.000000
o Plane001
usemtl 07___Default
s 1
f 26/61/19 28/62/19 25/63/19
f 26/61/19 27/64/19 28/62/19
