# Blender v2.79 (sub 0) OBJ File: ''
# www.blender.org
mtllib bloques_triang.mtl
o Box001.001
v -19.638100 -0.000000 2.842300
v -26.102200 0.000001 -16.084299
v -7.175600 0.000001 -22.548401
v -0.711500 0.000000 -3.621800
v -19.638100 20.000000 2.842301
v -0.711500 20.000000 -3.621799
v -7.175600 20.000002 -22.548401
v -26.102200 20.000000 -16.084299
vt 0.999500 0.999500
vt 0.000500 0.000500
vt 0.999500 0.000500
vt 0.000500 0.999500
vt 0.999500 0.000500
vt 0.000500 0.999500
vt 0.000500 0.000500
vt 0.999500 0.999500
vt 0.999500 0.000500
vt 0.000500 0.999500
vt 0.000500 0.000500
vt 0.999500 0.999500
vt 0.999500 0.000500
vt 0.000500 0.999500
vt 0.000500 0.000500
vt 0.999500 0.999500
vt 0.000500 0.000500
vt 0.999500 0.999500
vt 0.999500 0.000500
vt 0.000500 0.999500
vn -0.0000 -1.0000 -0.0000
vn -0.0000 1.0000 0.0000
vn -0.3232 0.0000 -0.9463
vn 0.3232 -0.0000 0.9463
vn -0.9463 0.0000 0.3232
vn 0.9463 -0.0000 -0.3232
usemtl Material__36.001
s 1
f 2/1/1 4/2/1 1/3/1
f 2/1/1 3/4/1 4/2/1
usemtl Material__36.001
f 6/5/2 8/6/2 5/7/2
f 6/5/2 7/8/2 8/6/2
usemtl Material__36.001
f 2/9/3 7/10/3 3/11/3
f 2/9/3 8/12/3 7/10/3
usemtl Material__36.001
f 4/13/4 5/14/4 1/15/4
f 4/13/4 6/16/4 5/14/4
usemtl Material__36.001
f 1/3/5 8/6/5 2/17/5
f 1/3/5 5/18/5 8/6/5
usemtl Material__36.001
f 3/19/6 6/20/6 4/2/6
f 3/19/6 7/8/6 6/20/6
o Plane001.001
v -150.000000 0.000005 -120.000000
v -150.000000 -0.000005 120.000000
v 150.000000 -0.000005 120.000000
v 150.000000 0.000005 -120.000000
vt 0.000000 0.000000
vt 1.000000 1.000000
vt 0.000000 1.000000
vt 1.000000 0.000000
vn 0.0000 1.0000 0.0000
usemtl 07___Default.001
s 1
f 10/21/7 12/22/7 9/23/7
f 10/21/7 11/24/7 12/22/7
o Box003.001
v 5.496900 -0.000000 1.762200
v -12.917700 -0.000000 9.566100
v -12.917700 20.000000 9.566101
v 5.496900 20.000000 1.762201
v 13.300800 -0.000001 20.176800
v 13.300800 20.000000 20.176800
v -5.113800 19.999998 27.980700
v -5.113800 -0.000001 27.980700
vt 0.999500 0.999500
vt 0.000500 0.000500
vt 0.999500 0.000500
vt 0.000500 0.999500
vt 0.000500 0.000500
vt 0.999500 0.999500
vt 0.000500 0.999500
vt 0.999500 0.000500
vt 0.999500 0.000500
vt 0.000500 0.999500
vt 0.000500 0.000500
vt 0.999500 0.999500
vt 0.999500 0.000500
vt 0.000500 0.999500
vt 0.000500 0.000500
vt 0.999500 0.999500
vt 0.000500 0.000500
vt 0.999500 0.999500
vt 0.999500 0.000500
vt 0.000500 0.999500
vn -0.3902 0.0000 -0.9207
vn 0.3902 0.0000 0.9207
vn -0.9207 0.0000 0.3902
vn 0.9207 0.0000 -0.3902
vn 0.0000 -1.0000 -0.0000
vn -0.0000 1.0000 0.0000
usemtl Material__37.001
s 1
f 14/25/8 16/26/8 13/27/8
f 14/25/8 15/28/8 16/26/8
usemtl Material__37.001
f 17/29/9 19/30/9 20/31/9
f 17/29/9 18/32/9 19/30/9
usemtl Material__37.001
f 14/33/10 19/34/10 15/35/10
f 14/33/10 20/36/10 19/34/10
usemtl Material__37.001
f 16/37/11 17/38/11 13/39/11
f 16/37/11 18/40/11 17/38/11
usemtl Material__37.001
f 13/27/12 20/31/12 14/41/12
f 13/27/12 17/42/12 20/31/12
usemtl Material__37.001
f 15/43/13 18/44/13 16/26/13
f 15/43/13 19/30/13 18/44/13
o Box002.001
v 0.024000 0.000000 -4.633400
v 7.948000 0.000001 -22.996700
v 26.311199 0.000001 -15.072700
v 18.387199 -0.000000 3.290600
v 0.024000 20.000000 -4.633399
v 18.387199 20.000000 3.290601
v 26.311199 20.000000 -15.072699
v 7.948000 20.000002 -22.996700
vt 0.999500 0.000500
vt 0.000500 0.999500
vt 0.000500 0.000500
vt 0.999500 0.999500
vt 0.000500 0.000500
vt 0.999500 0.999500
vt 0.000500 0.999500
vt 0.999500 0.000500
vt 0.999500 0.000500
vt 0.000500 0.999500
vt 0.000500 0.000500
vt 0.999500 0.999500
vt 0.999500 0.000500
vt 0.000500 0.999500
vt 0.000500 0.000500
vt 0.999500 0.999500
vt 0.000500 0.000500
vt 0.999500 0.999500
vt 0.000500 0.999500
vt 0.999500 0.000500
vn 0.0000 -1.0000 -0.0000
vn 0.0000 1.0000 -0.0000
vn 0.3962 0.0000 -0.9182
vn -0.3962 -0.0000 0.9182
vn -0.9182 0.0000 -0.3962
vn 0.9182 0.0000 0.3962
usemtl Material__37.001
s 1
f 21/45/14 23/46/14 24/47/14
f 21/45/14 22/48/14 23/46/14
usemtl Material__38.001
f 25/49/15 27/50/15 28/51/15
f 25/49/15 26/52/15 27/50/15
usemtl Material__38.001
f 22/53/16 27/54/16 23/55/16
f 22/53/16 28/56/16 27/54/16
usemtl Material__38.001
f 24/57/17 25/58/17 21/59/17
f 24/57/17 26/60/17 25/58/17
usemtl Material__38.001
f 21/45/18 28/51/18 22/61/18
f 21/45/18 25/62/18 28/51/18
usemtl Material__38.001
f 24/47/19 27/50/19 26/63/19
f 24/47/19 23/64/19 27/50/19
