# Blender v2.79 (sub 0) OBJ File: ''
# www.blender.org
mtllib bloques_triang_v3.mtl
o Box003.001
v -14.074114 0.797384 22.268742
v 4.340486 20.797384 14.464844
v 4.340486 0.797384 14.464843
v -14.074114 20.797384 22.268745
v 12.144386 0.797382 32.879440
v -6.270214 20.797380 40.683342
v -6.270214 0.797382 40.683342
v 12.144386 20.797384 32.879440
vt 0.999500 0.999500
vt 0.000500 0.000500
vt 0.999500 0.000500
vt 0.000500 0.999500
vt 0.000500 0.000500
vt 0.999500 0.999500
vt 0.000500 0.999500
vt 0.999500 0.000500
vt 0.999500 0.000500
vt 0.000500 0.999500
vt 0.000500 0.000500
vt 0.999500 0.999500
vt 0.999500 0.000500
vt 0.000500 0.999500
vt 0.000500 0.000500
vt 0.999500 0.999500
vt 0.000500 0.000500
vt 0.999500 0.999500
vt 0.999500 0.000500
vt 0.000500 0.999500
vn -0.3902 0.0000 -0.9207
vn 0.3902 0.0000 0.9207
vn -0.9207 -0.0000 0.3902
vn 0.9207 0.0000 -0.3902
vn -0.0000 -1.0000 -0.0000
vn -0.0000 1.0000 0.0000
usemtl Material__38
s 1
f 1/1/1 2/2/1 3/3/1
f 1/1/1 4/4/1 2/2/1
f 5/5/2 6/6/2 7/7/2
f 5/5/2 8/8/2 6/6/2
f 1/9/3 6/10/3 4/11/3
f 1/9/3 7/12/3 6/10/3
f 2/13/4 5/14/4 3/15/4
f 2/13/4 8/16/4 5/14/4
f 3/3/5 7/7/5 1/17/5
f 3/3/5 5/18/5 7/7/5
f 4/19/6 8/20/6 2/2/6
f 4/19/6 6/6/6 8/20/6
o Plane001.001
v -150.000000 -0.000010 120.000000
v 150.000000 0.000010 -120.000000
v -150.000000 0.000010 -120.000000
v 150.000000 -0.000010 120.000000
vt 0.000000 0.000000
vt 1.000000 1.000000
vt 0.000000 1.000000
vt 1.000000 0.000000
vn 0.0000 1.0000 0.0000
usemtl 07___Default.001
s 1
f 9/21/7 10/22/7 11/23/7
f 9/21/7 12/24/7 10/22/7
o Box003.000
v -17.561344 2.361131 -19.335670
v 0.853257 22.361132 -27.139570
v 0.853257 2.361132 -27.139572
v -17.561344 22.361132 -19.335670
v 8.657157 2.361130 -8.724972
v -9.757443 22.361128 -0.921072
v -9.757443 2.361130 -0.921072
v 8.657157 22.361132 -8.724972
vt 0.999500 0.999500
vt 0.000500 0.000500
vt 0.999500 0.000500
vt 0.000500 0.999500
vt 0.000500 0.000500
vt 0.999500 0.999500
vt 0.000500 0.999500
vt 0.999500 0.000500
vt 0.999500 0.000500
vt 0.000500 0.999500
vt 0.000500 0.000500
vt 0.999500 0.999500
vt 0.999500 0.000500
vt 0.000500 0.999500
vt 0.000500 0.000500
vt 0.999500 0.999500
vt 0.000500 0.000500
vt 0.999500 0.999500
vt 0.999500 0.000500
vt 0.000500 0.999500
vn -0.3902 0.0000 -0.9207
vn 0.3902 0.0000 0.9207
vn -0.9207 0.0000 0.3902
vn 0.9207 0.0000 -0.3902
vn -0.0000 -1.0000 -0.0000
vn -0.0000 1.0000 0.0000
usemtl Material__37
s 1
f 13/25/8 14/26/8 15/27/8
f 13/25/8 16/28/8 14/26/8
f 17/29/9 18/30/9 19/31/9
f 17/29/9 20/32/9 18/30/9
f 13/33/10 18/34/10 16/35/10
f 13/33/10 19/36/10 18/34/10
f 14/37/11 17/38/11 15/39/11
f 14/37/11 20/40/11 17/38/11
f 15/27/12 19/31/12 13/41/12
f 15/27/12 17/42/12 19/31/12
f 16/43/13 20/44/13 14/26/13
f 16/43/13 18/30/13 20/44/13
