# Blender v2.79 (sub 0) OBJ File: ''
# www.blender.org
mtllib bloques.mtl
o Plane001
v -60.000000 0.000002 -48.000000
v -60.000000 -0.000002 48.000000
v 60.000000 -0.000002 48.000000
v 60.000000 0.000002 -48.000000
vt 0.000000 1.000000
vt 0.000000 0.000000
vt 1.000000 0.000000
vt 1.000000 1.000000
vn 0.0000 1.0000 0.0000
usemtl 07___Default
s 1
f 1/1/1 2/2/1 3/3/1 4/4/1
o Box001
v -7.855240 -0.000000 1.136920
v -10.440880 0.000000 -6.433720
v -2.870240 0.000000 -9.019361
v -0.284600 0.000000 -1.448720
v -7.855240 8.000000 1.136920
v -0.284600 8.000000 -1.448720
v -2.870240 8.000000 -9.019361
v -10.440880 8.000000 -6.433719
vt 0.000500 0.000500
vt 0.999500 0.000500
vt 0.999500 0.999500
vt 0.000500 0.999500
vt 0.000500 0.000500
vt 0.999500 0.000500
vt 0.999500 0.999500
vt 0.000500 0.999500
vt 0.999500 0.000500
vt 0.999500 0.999500
vt 0.000500 0.999500
vt 0.000500 0.000500
vt 0.000500 0.000500
vt 0.999500 0.999500
vt 0.999500 0.000500
vt 0.000500 0.999500
vt 0.000500 0.000500
vt 0.999500 0.000500
vt 0.999500 0.999500
vt 0.000500 0.999500
vn 0.0000 1.0000 -0.0000
vn -0.3232 0.0000 -0.9463
vn 0.0000 -1.0000 -0.0000
vn -0.9463 -0.0000 0.3232
vn 0.9463 0.0000 -0.3232
vn 0.3232 -0.0000 0.9463
usemtl Material__39
s 1
f 9/5/2 10/6/2 11/7/2 12/8/2
usemtl Material__41
f 7/9/3 6/10/3 12/11/3 11/12/3
usemtl Material__37
f 5/13/4 6/14/4 7/15/4 8/16/4
usemtl Material__38
f 6/17/5 5/13/5 9/18/5 12/8/5
usemtl Material__36
f 8/16/6 7/19/6 11/7/6 10/20/6
usemtl Material__40
f 5/21/7 8/22/7 10/23/7 9/24/7
o Box002
v 0.009600 0.000000 -1.853360
v 3.179200 0.000000 -9.198680
v 10.524480 0.000000 -6.029080
v 7.354880 -0.000000 1.316240
v 0.009600 8.000000 -1.853360
v 7.354880 8.000000 1.316240
v 10.524480 8.000000 -6.029079
v 3.179200 8.000000 -9.198680
vt 0.000500 0.000500
vt 0.999500 0.000500
vt 0.999500 0.999500
vt 0.000500 0.999500
vt 0.000500 0.000500
vt 0.999500 0.000500
vt 0.999500 0.999500
vt 0.000500 0.999500
vt 0.999500 0.000500
vt 0.999500 0.999500
vt 0.000500 0.999500
vt 0.000500 0.000500
vt 0.000500 0.000500
vt 0.999500 0.999500
vt 0.999500 0.000500
vt 0.000500 0.999500
vt 0.000500 0.000500
vt 0.999500 0.000500
vt 0.999500 0.999500
vt 0.000500 0.999500
vn 0.0000 1.0000 0.0000
vn 0.3962 0.0000 -0.9182
vn -0.0000 -1.0000 -0.0000
vn -0.9182 0.0000 -0.3962
vn 0.9182 -0.0000 0.3962
vn -0.3962 -0.0000 0.9182
usemtl Material__39
s 1
f 17/25/8 18/26/8 19/27/8 20/28/8
usemtl Material__41
f 15/29/9 14/30/9 20/31/9 19/32/9
usemtl Material__37
f 13/33/10 14/34/10 15/35/10 16/36/10
usemtl Material__38
f 14/37/11 13/33/11 17/38/11 20/28/11
usemtl Material__36
f 16/36/12 15/39/12 19/27/12 18/40/12
usemtl Material__40
f 13/41/13 16/42/13 18/43/13 17/44/13
o Box003
v 2.198760 -0.000000 0.704880
v -5.167080 -0.000000 3.826440
v -5.167080 8.000000 3.826440
v 2.198760 8.000000 0.704880
v 5.320320 -0.000000 8.070720
v 5.320320 8.000000 8.070720
v -2.045520 8.000000 11.192280
v -2.045520 -0.000000 11.192280
vt 0.000500 0.000500
vt 0.999500 0.000500
vt 0.999500 0.999500
vt 0.000500 0.999500
vt 0.000500 0.000500
vt 0.999500 0.000500
vt 0.999500 0.999500
vt 0.000500 0.999500
vt 0.999500 0.000500
vt 0.999500 0.999500
vt 0.000500 0.999500
vt 0.000500 0.000500
vt 0.000500 0.000500
vt 0.999500 0.999500
vt 0.999500 0.000500
vt 0.000500 0.999500
vt 0.000500 0.000500
vt 0.999500 0.000500
vt 0.999500 0.999500
vt 0.000500 0.999500
vn 0.3902 0.0000 0.9207
vn -0.9207 0.0000 0.3902
vn -0.3902 0.0000 -0.9207
vn 0.0000 -1.0000 -0.0000
vn 0.0000 1.0000 0.0000
vn 0.9207 0.0000 -0.3902
usemtl Material__39
s 1
f 25/45/14 26/46/14 27/47/14 28/48/14
usemtl Material__41
f 23/49/15 22/50/15 28/51/15 27/52/15
usemtl Material__37
f 21/53/16 22/54/16 23/55/16 24/56/16
usemtl Material__38
f 22/57/17 21/53/17 25/58/17 28/48/17
usemtl Material__36
f 24/56/18 23/59/18 27/47/18 26/60/18
usemtl Material__40
f 21/61/19 24/62/19 26/63/19 25/64/19
